<?xml version="1.0" standalone="no"?>
<!DOCTYPE svg PUBLIC "-//W3C//DTD SVG 20010904//EN"
 "http://www.w3.org/TR/2001/REC-SVG-20010904/DTD/svg10.dtd">
<svg version="1.0" xmlns="http://www.w3.org/2000/svg"
 width="200.000000pt" height="100.000000pt" viewBox="0 0 200.000000 100.000000"
 preserveAspectRatio="xMidYMid meet">
<metadata>
Created by potrace 1.13, written by Peter Selinger 2001-2015
</metadata>
<g transform="translate(0.000000,100.000000) scale(0.100000,-0.100000)"
fill="#000000" stroke="none">
<path d="M80 960 c0 -5 -7 -10 -15 -10 -9 0 -15 -9 -15 -25 0 -18 5 -25 20
-25 26 0 48 -35 55 -90 4 -25 10 -54 15 -65 4 -11 12 -32 18 -47 6 -14 14 -54
18 -87 4 -34 11 -64 15 -67 5 -3 9 -22 9 -43 0 -21 3 -41 8 -45 6 -7 19 -69
39 -186 3 -19 9 -39 13 -45 4 -5 11 -37 15 -69 6 -56 14 -81 38 -133 9 -21 11
-21 23 -5 7 9 14 38 14 64 0 26 4 49 9 52 4 3 12 42 15 86 4 44 12 82 17 85 5
4 9 28 9 54 0 26 4 51 10 57 5 5 11 81 13 169 4 152 -2 166 -20 43 -3 -23 -11
-38 -19 -38 -9 0 -14 12 -14 38 0 34 -16 93 -32 117 -3 6 -9 40 -13 78 -4 37
-11 70 -16 73 -5 3 -9 15 -9 28 0 12 -5 27 -12 34 -15 15 -208 17 -208 2z"/>
<path d="M480 485 l0 -485 108 0 c94 0 109 2 119 19 9 15 7 25 -13 54 l-24 36
0 381 0 381 27 25 c24 22 25 27 13 49 -13 24 -17 25 -122 25 l-108 0 0 -485z"/>
<path d="M826 954 c-11 -28 -7 -43 19 -68 l25 -25 0 -385 c0 -367 -1 -386 -19
-395 -23 -13 -31 -33 -24 -60 5 -20 12 -21 114 -21 l109 0 0 485 0 485 -109 0
c-90 0 -110 -3 -115 -16z"/>
<path d="M1120 937 c0 -18 11 -48 25 -69 24 -35 25 -45 25 -165 -1 -127 -9
-163 -39 -163 -6 0 -11 -17 -11 -40 0 -23 5 -40 11 -40 31 0 38 -35 38 -190 0
-155 -7 -190 -38 -190 -6 0 -11 -17 -11 -40 l0 -40 64 0 c48 0 65 4 70 15 3 8
13 15 23 15 11 0 34 24 58 62 l39 61 0 106 c0 95 -2 110 -24 143 -14 21 -31
38 -37 38 -7 0 -13 5 -13 10 0 6 -4 10 -10 10 -5 0 -19 9 -30 20 -20 20 -20
20 0 40 11 11 25 20 30 20 5 0 10 5 10 10 0 6 7 10 15 10 9 0 15 9 15 23 0 12
9 33 20 47 15 20 20 41 20 100 0 59 -5 80 -20 100 -11 14 -20 35 -20 48 0 13
-6 22 -15 22 -8 0 -15 5 -15 10 0 6 -6 10 -14 10 -8 0 -16 7 -20 15 -3 9 -18
15 -40 15 -19 0 -38 5 -41 10 -3 6 -19 10 -36 10 -26 0 -29 -3 -29 -33z"/>
<path d="M1490 946 c-11 -21 -10 -29 9 -59 20 -33 21 -44 21 -403 0 -351 -1
-370 -20 -394 -11 -14 -20 -40 -20 -57 l0 -33 133 0 c122 0 133 2 145 20 11
18 9 24 -13 46 l-25 25 0 422 c-1 335 -3 426 -14 440 -11 14 -29 17 -108 17
-90 0 -95 -1 -108 -24z"/>
<path d="M1770 937 c0 -18 11 -48 25 -69 24 -36 25 -42 25 -201 0 -160 -1
-165 -26 -202 -14 -21 -24 -47 -22 -59 3 -18 11 -21 61 -24 44 -2 59 0 63 12
3 9 11 16 18 16 6 1 28 26 49 56 l37 55 0 145 0 145 -32 47 c-51 76 -73 92
-124 92 -24 0 -44 5 -44 10 0 6 -7 10 -15 10 -10 0 -15 -10 -15 -33z"/>
<path d="M128 343 c-3 -168 -7 -223 -18 -240 -8 -13 -19 -23 -25 -23 -6 0 -16
-9 -23 -20 -10 -16 -10 -24 0 -40 11 -17 24 -20 85 -20 l73 0 0 109 c0 63 -4
112 -10 116 -5 3 -10 28 -10 55 0 27 -4 51 -9 54 -5 3 -12 37 -16 76 -4 39
-11 73 -16 76 -5 3 -9 21 -9 40 0 19 -4 34 -9 34 -5 0 -11 -98 -13 -217z"/>
</g>
</svg>
